<?xml version="1.0" encoding="UTF-8"?>
<svg id="_Слой_1" data-name="Слой 1" xmlns="http://www.w3.org/2000/svg" viewBox="0 0 70 70">
  <defs>
    <style>
      .cls-1 {
        fill: none;
      }

      .cls-2 {
        fill: #44734b;
      }

      .cls-3 {
        fill: #e0a82b;
      }

      .cls-4 {
        fill: #243f20;
      }
    </style>
  </defs>
  <path class="cls-1" d="M7.77,46.12c.13.12.2.02.23-.11-.04.13-.1.22-.23.11Z"/>
  <path class="cls-1" d="M27.08,27.47s0,0,0,0c-3.8-.17-7.27,1.84-9.81,4.65,2.54-2.81,6.01-4.83,9.81-4.65Z"/>
  <path class="cls-1" d="M23.09,30.15s-.07.05-.1.08c.03-.03.07-.05.1-.08Z"/>
  <path class="cls-1" d="M14.23,47.64l.66,5.24s0,0,0,0l-.66-5.24c-.06-3.8,1.16-7.66,3.18-11.02-2.01,3.36-3.23,7.23-3.18,11.02Z"/>
  <path class="cls-1" d="M22.67,30.48s.04-.03.06-.05c.08-.07.16-.13.25-.19-.08.06-.16.13-.25.19-.02.02-.04.03-.06.05Z"/>
  <path class="cls-1" d="M13.79,29.21c-1.58,1.24-2.93,2.78-3.96,4.42-1.53,2.44-2.47,5.19-2.59,8.01.13-2.82,1.06-5.57,2.59-8.01,1.03-1.64,2.38-3.18,3.96-4.42Z"/>
  <path class="cls-1" d="M23.24,26.44s0,0,0,0c.01.08.02.14.02.18,0-.04,0-.1-.02-.18Z"/>
  <path class="cls-1" d="M22.21,27.2c.29-.14.57-.28.85-.44,0,0,.02,0,.02-.01,0,0-.02,0-.02.01-.28.15-.56.3-.85.44Z"/>
  <path class="cls-1" d="M43.81,35.02c.06.58.2,1.09.44,1.43l2.67.85-2.67-.85c-.23-.34-.38-.85-.44-1.43Z"/>
  <path class="cls-1" d="M48.18,27.23c.17-.32.25-.73.41-1.13-.16.39-.24.81-.41,1.13Z"/>
  <path class="cls-1" d="M20.88,25.11s0,0,0,0c-.92-1.15-2.16-1.57-3.47-1.57,1.31,0,2.55.42,3.47,1.57Z"/>
  <path class="cls-1" d="M51.88,35.56c-1.36.28-2.58,1.01-3.65,1.86,1.07-.85,2.3-1.58,3.65-1.86Z"/>
  <path class="cls-1" d="M54.49,34.54c-.31-2.14-3.34-.47-4.95-.42,0,0,0,0,0,0,1.61-.05,4.64-1.72,4.95.42Z"/>
  <path class="cls-1" d="M46.92,31.97s.02.02.03.02c0,0-.02-.02-.03-.02Z"/>
  <path class="cls-1" d="M46.82,31.87s0,0,0,0c0,0,0,0,0,0Z"/>
  <path class="cls-1" d="M48.17,27.24s0,0,0,0c0,0,0,0,0,0Z"/>
  <path class="cls-1" d="M46.88,31.66c-.13-.35-.25-.69-.34-1.04.09.35.21.69.34,1.04Z"/>
  <path class="cls-1" d="M6.99,19.95c-1.78,1.63-3.1,3.83-3.64,6.11.54-2.28,1.86-4.47,3.64-6.11Z"/>
  <path class="cls-1" d="M12.54,13.33s-.05,0-.07,0c.02,0,.05,0,.07,0Z"/>
  <path class="cls-1" d="M27.97,8.56s0,0,0,0c-5.15-5.21-14.2-2.08-18.46,2.81h0c4.27-4.88,13.32-8.02,18.46-2.81Z"/>
  <path class="cls-1" d="M17.14,11.74l-.93,1.83c-1.2-.31-2.44-.37-3.66-.23,1.23-.14,2.47-.08,3.66.23l.93-1.83c-1.31-1.57-3.9-1.02-5.93-.03,2.03-.99,4.62-1.53,5.93.03Z"/>
  <path class="cls-1" d="M7.44,15.06h0c-.08-.11.07-.37.31-.67-.24.3-.4.56-.31.67Z"/>
  <path class="cls-1" d="M18.08,10.41s0,0,0,0c.14-.24.62-.54,1.03-.83-.4.29-.89.59-1.03.83Z"/>
  <path class="cls-1" d="M5.22,19.35s0,0,0,0l3.2-1.9c.44-.2.89-.37,1.34-.52-.45.15-.89.32-1.33.52l-3.2,1.9Z"/>
  <path class="cls-1" d="M20.29,7.79c.5.2,1.01.47,1.25.47.1,0,.29-.06.52-.14-.23.08-.42.14-.52.14-.24,0-.76-.26-1.25-.47Z"/>
  <path class="cls-1" d="M19.7,8.88c-.11-.63-2.09-1.13-2.66-1.05,0,0,0,0,0,0,.57-.08,2.54.42,2.66,1.05Z"/>
  <path class="cls-1" d="M11.97,17.34c-.41.09-.8.2-1.14.31-.98.32-1.91.81-2.77,1.43.85-.62,1.79-1.11,2.77-1.43.34-.11.73-.22,1.14-.31Z"/>
  <path class="cls-1" d="M16.14,22.32c-2.38.39-4.69,1.4-6.7,2.81,2.01-1.42,4.32-2.42,6.7-2.81Z"/>
  <path class="cls-1" d="M17.78,22.15h0s0-.11-.07-.24c.06.12.1.21.07.24Z"/>
  <path class="cls-1" d="M3.3,32.2s0,0,0,0c.16-1.16.49-2.32.95-3.44-.47,1.12-.79,2.29-.95,3.44Z"/>
  <path class="cls-1" d="M16.99,20.87s.06.07.12.14c-.06-.08-.1-.13-.12-.15-1.01-.87-2.9-.58-4.09-.27-1,.26-1.94.67-2.83,1.2.89-.53,1.83-.94,2.83-1.2,1.19-.31,3.08-.6,4.09.27Z"/>
  <polygon class="cls-1" points="4.01 25.53 3.3 26.29 3.3 26.29 4.01 25.53"/>
  <path class="cls-1" d="M17.71,25.66c-1.86.56-3.69,1.5-5.27,2.57,1.58-1.07,3.41-2.01,5.27-2.57Z"/>
  <path class="cls-1" d="M9.85,14.89c1.83-.77,6.81-1.93,6.16,1.5,0,0,0,0,0,0,.65-3.43-4.33-2.28-6.16-1.5-1.41.59-2.76,1.63-3.71,2.89.95-1.27,2.3-2.3,3.71-2.89Z"/>
  <path class="cls-1" d="M51.65,33.1c1.05-.34,2.12-.71,2.38-1.48-.27.77-1.33,1.14-2.38,1.48Z"/>
  <path class="cls-1" d="M4.48,38.99c-.16-4.74,2.22-9.57,5.93-12.57-3.71,3-6.09,7.83-5.93,12.57.18.03.25.02.28-.03-.03.05-.1.06-.28.03Z"/>
  <path class="cls-1" d="M52.93,57.28s0,0,0,0c0,0,0,0,0,0Z"/>
  <path class="cls-1" d="M51.61,59.65s0-.09,0-.13c0,.04,0,.09,0,.13Z"/>
  <path class="cls-1" d="M33.16,56.7s-.02.06-.03.08c-.12.41-.14.82-.08,1.19-.04-.43,0-.86.11-1.28Z"/>
  <path class="cls-1" d="M45.43,57.97c-.11.01-.23.02-.35.02-.15,0-.3-.01-.44-.03.05.03.1.06.13.07.14.04.39.02.67-.05Z"/>
  <path class="cls-1" d="M49.98,48.8c-.06.29-.32,1.31-.46,1.47-.04.04-.08.08-.13.13.09-.06.16-.12.21-.18.14-.17.39-1.18.46-1.46.89-4.25-1.56-9.22-5.43-10.32,3.82,1.15,6.24,6.12,5.36,10.37Z"/>
  <path class="cls-1" d="M36.04,37.24c.41.77,1.32,1.53,1.79,2.28.17.11.33.17.47.19-.13-.03-.26-.08-.4-.18-.47-.75-1.39-1.5-1.79-2.27-.52-.99-.55-2.32-1.43-2.82.8.54.84,1.82,1.35,2.79Z"/>
  <path class="cls-1" d="M30.48,42.04s0,0,.01,0c-.3-.01-.83-.24-1.27-.24-.05,0-.1,0-.15,0,.03,0,.05,0,.08,0,.47,0,1.04.27,1.33.25Z"/>
  <path class="cls-1" d="M27.53,51.61c.31.94.85,1.58,1.22,2.46.04,0,.07,0,.11,0-.36-.91-.93-1.55-1.25-2.52-.8-2.4-.59-5.06,1.15-6.97,0-.03.02-.06.03-.09-1.83,1.94-2.07,4.67-1.25,7.13Z"/>
  <path class="cls-1" d="M53.42,30.32c-.6-.32-1.49-.41-2.17-.34.68-.07,1.57.03,2.17.34Z"/>
  <path class="cls-1" d="M57.23,49.31c-.13-.63-.2-1.25-.3-1.58.09.4.16,1,.3,1.58Z"/>
  <path class="cls-1" d="M52.9,57.3c-.8.53-1.21,1.35-1.28,2.19.07-.85.48-1.66,1.28-2.19Z"/>
  <path class="cls-1" d="M59.15,58.19s.03,0,.04,0c-.02,0-.03,0-.04,0,0,0,0,0,0,0Z"/>
  <path class="cls-1" d="M55.99,62.51c-1.5.56-2.68.24-3.43-.47.75.71,1.93,1.03,3.43.48.52-.19.93-.48,1.24-.82-.31.34-.71.63-1.24.82Z"/>
  <path class="cls-1" d="M60.72,38.93c-.81.22-1.59.54-2.45.9,0,0,.02.01.02.02.86-.36,1.64-.69,2.43-.91Z"/>
  <path class="cls-1" d="M52.25,28.94l-1.68,1.2s0,0,0,0l1.68-1.19c1.37-1.6.65-2.85-.38-4.16,1.04,1.31,1.76,2.56.38,4.16Z"/>
  <path class="cls-1" d="M46.88,31.94s-.02-.02-.03-.03c.01.01.02.02.03.03Z"/>
  <path class="cls-1" d="M33.14,36.2c-.28-.16-1.08-.25-1.55-.47.42.23,1.2.32,1.55.47Z"/>
  <path class="cls-1" d="M46.05,30.47c-.12-.12-.26-.19-.46-.16.2-.03.34.04.46.16Z"/>
  <path class="cls-1" d="M33.88,53.4s.05-.04.08-.07c-1.53-2.93-2.61-6.63-.68-9.64,0-.03,0-.07,0-.1-2.04,3.04-.95,6.82.6,9.81Z"/>
  <path class="cls-1" d="M47.03,52.07c-.18.23-.25.63-.45.86.25-.2.33-.67.53-.92.12-.15.26-.3.41-.42-.18.15-.34.31-.49.49Z"/>
  <path class="cls-1" d="M44.01,53h.03c2.15-3.48.74-7.94-1.55-10.99-.04-.02-.08-.04-.12-.06,2.3,3.04,3.74,7.53,1.64,11.04Z"/>
  <path class="cls-1" d="M39.56,51.69c.03.64.23,1.25.16,1.9.02,0,.04.01.06.02.09-.68-.12-1.32-.15-1.99,0-.14-.07-.59.04-.75-.21.06-.12.65-.12.82Z"/>
  <path class="cls-4" d="M69.06,40.08c-.74-1.51-3.27-3.45-4.97-3.45h-3.18c-.11-.84.57-1.64,1.2-2.13.67-.53,2.05-.73,1.53-1.86-.63-1.39-2.93.18-3.69.9-.54.51-2.45,3.02-2.65,3.05-.05,0-.25-.12-.35-.14-.12-.86-.13-1.69-.55-2.47-.17-.32-.87-.98-.92-1.15-.08-.29.27-.77.28-1.16.05-1.3-.88-1.82-1.61-2.69.48-1.53.6-2.6-.26-4.02-.21-.35-1-1.09-1.06-1.3-.12-.39.01-.95-.07-1.41-.21-1.27-1.97-3.47-3.41-3.03-1.22.37.57,1.81.72,2.47.39,1.76-.89,1.53-1.86,2.3-1.08.86-.84,1.72-1.41,2.43-.08.11-1.71,1.39-1.82,1.41-.33.08-2.46-1.28-3.08-1.52-6.27-2.4-12.86,1.33-19.08-2.19-3.62-2.05-6.06-6.24-4.32-10.35,1.53-3.64,5.91-5.27,9.32-3.07.58.38,2.22,2.66,2.86,1.36.71-1.44-.71-3.94-1.75-4.98-4.87-4.92-13.3-2.79-18.16,1.04C-.08,16.66-2.93,33.44,3.13,45.59c4.96,9.95,15.04,15.08,25.73,16.59l-2.66-1.84c-9.39-7.46-10.14-23.24-.04-30.48,3.55-2.54,8.45-3.82,12.75-2.61.17.05,1.7.63.96.81-.67.16-2.83,0-3.69,0-4.69,0-11.13,4.83-13.28,8.88-6.64,12.52,4.13,24.59,16.18,27.21,1.63.35,4.21.18,5.39.66,1.6.65,1.93,1.13,3.94.9.95-.11,1.74-.75,2.54-.86,2.06-.28,3.53.46,5.67-.39,1.28-.5,4.72-3.59,5.44-4.75.85-1.37,1.02-2.9,1.13-4.48,5-2.8,8.59-9.64,5.86-15.16ZM9.5,11.37c4.27-4.88,13.32-8.02,18.46-2.81,0,0,0,0,0,0,0,0,0,0,0,0-1.51-.51-2.84-1.03-4.49-.87-.39.04-.97.27-1.41.42-.23.08-.42.14-.52.14-.24,0-.76-.26-1.25-.47-.25-.1-.5-.19-.71-.22-.53-.08-1.18-.07-1.72-.02-.16.02-.81.07-.83.28.57-.08,2.54.42,2.66,1.05,0,.02,0,.04,0,.06,0,.19-.27.42-.6.65-.4.29-.89.59-1.03.83,0,0,0,0,0,0,0,0,0,0,0,0-2.89-.96-5.88-.29-8.57.96,0,0,0,0,0,0h0ZM9.14,13c.52-.43,1.25-.9,2.07-1.3,2.03-.99,4.62-1.53,5.93.03l-.93,1.83c-1.2-.31-2.44-.37-3.66-.23,0,0,0,0,0,0-.02,0-.05,0-.07,0-1.77.21-3.51.84-5.03,1.72,0,0,0,0,0,0h0c-.08-.11.07-.37.31-.67.45-.55,1.2-1.23,1.39-1.39ZM9.85,14.89c1.83-.77,6.81-1.93,6.16,1.5,0,0,0,0,0,0,0,0,0,0,0,0-2.15-.28-4.24-.12-6.25.54-.45.15-.89.32-1.34.52l-3.2,1.9s0,0,0,0h0c.23-.55.54-1.07.91-1.56.95-1.27,2.3-2.3,3.71-2.89ZM3.3,26.29c.02-.08.04-.16.05-.23.54-2.28,1.86-4.47,3.64-6.11.34-.31.7-.6,1.07-.87.85-.62,1.79-1.11,2.77-1.43.34-.11.73-.22,1.14-.31,1.84-.4,4.06-.35,4.32,1.86-3.68-.08-7.1,1.48-9.9,3.77l-2.39,2.56-.71.76s0,0,0,0h0ZM3.3,32.2h0s0,0,0,0c.16-1.15.49-2.32.95-3.44,1.17-2.83,3.23-5.4,5.82-6.95.89-.53,1.83-.94,2.83-1.2,1.19-.31,3.08-.6,4.09.27.02.02.06.07.12.15.17.22.45.64.59.9.06.12.1.21.07.24h0s0,0,0,0c-.55.02-1.09.08-1.63.17-2.38.39-4.69,1.4-6.7,2.81-1.71,1.2-3.2,2.7-4.35,4.36-.51.74-.88,1.61-1.35,2.34-.12.19-.11.44-.45.36ZM4.48,38.99c-.16-4.74,2.22-9.57,5.93-12.57.96-.78,2.01-1.43,3.13-1.93,1.19-.53,2.56-.95,3.87-.95,1.31,0,2.55.42,3.47,1.57,0,0,0,0,0,0,0,0,0,0,0,0-1.04.04-2.11.24-3.17.56-1.86.56-3.69,1.5-5.27,2.57-.48.33-.95.67-1.38,1.02-3.44,2.76-4.67,5.45-6.24,9.42-.05.13-.02.24-.05.3-.03.05-.1.06-.28.03ZM8.03,45.87s-.01.1-.03.15c-.04.13-.1.22-.23.11-.01-.01-.02-.02-.04-.04-.41-1.48-.56-2.97-.5-4.44.13-2.82,1.06-5.57,2.59-8.01,1.03-1.64,2.38-3.18,3.96-4.42,2.68-2.11,6.01-3.36,9.45-2.77,0,0,0,0,0,0,0,0,0,0,0,0,.01.08.02.14.02.18,0,.11-.07.09-.19.14,0,0-.02,0-.02.01-.28.15-.56.3-.85.44-1.11.54-2.27,1-3.38,1.68-5.05,3.09-9.64,8.51-10.61,14.5-.13.82-.09,1.69-.19,2.47ZM23.09,30.15s-.07.05-.1.08c0,0,0,0-.01.01-.08.06-.16.13-.25.19-.02.02-.04.03-.06.05-2.03,1.66-3.84,3.77-5.26,6.13-2.01,3.36-3.23,7.23-3.18,11.02l.66,5.24s0,0,0,0h0c-3.23-4.79-2.89-11.38-.5-16.45.71-1.51,1.69-2.99,2.88-4.3,2.54-2.81,6.01-4.83,9.81-4.65,0,0,0,0,0,0,0,0,0,0,0,0-1.32.91-2.71,1.7-3.99,2.67ZM45.2,30.45c.15-.08.28-.13.39-.14.2-.03.34.04.46.16.3.31.42.99.77,1.4,0,0,0,0,0,0,0,.01.02.02.03.03.01.01.02.02.03.03.01.01.03.02.04.04,0,0,.02.02.03.02.02.02.05.04.07.05-.05-.13-.09-.26-.14-.39-.13-.35-.25-.69-.34-1.04-.17-.67-.19-1.33.21-2.02.34-.58,1.08-.83,1.38-1.28.02-.02.03-.05.05-.08,0,0,0,0,0,0,0,0,0,0,0-.01.17-.32.25-.73.41-1.13.05-.12.1-.24.17-.35.63-1.03,1.57-1.22,2.67-1.51.15.18.29.36.43.54,1.04,1.31,1.76,2.56.38,4.16l-1.68,1.19c.17-.08.41-.13.67-.16.68-.07,1.57.03,2.17.34.43.23.72.56.67,1.03,0,.09-.03.18-.06.27-.27.77-1.33,1.14-2.38,1.48-.87.28-1.72.55-2.12,1.02,1.61-.05,4.64-1.72,4.95.42.03.22.04.47,0,.78-.18.26-1.62.11-2.06.16-.19.02-.37.05-.55.09-1.36.28-2.58,1.01-3.65,1.86-.09.07-.18.14-.27.22l-1.04-.33-2.67-.85c-.23-.34-.38-.85-.44-1.43-.18-1.69.34-4,1.38-4.57ZM36.48,33.79c.68-3.26,3.6-3.26,5.52-2.35,1.03.49-.1,2.77-.28,3.22-.23.56-.46,1.43-1.5,1.22,0,0-1.43-.33-2.38-.91-.91-.56-1.47-.71-1.37-1.19ZM30.25,57.99c-1.09,0-1.97-.7-1.97-1.56s.88-1.56,1.97-1.56,1.97.7,1.97,1.56-.88,1.56-1.97,1.56ZM29.2,51.42c-1.29-2.21-1.13-4.47-.45-6.84-1.74,1.92-1.95,4.57-1.15,6.97.32.96.89,1.61,1.25,2.52-.04,0-.07,0-.11,0,.01.03.02.05.03.08-2.78.1-4.64-3.73-4.73-6.16-.11-2.8,2.01-6.18,5.02-6.19.05,0,.1,0,.15,0,.44,0,.97.23,1.27.24.32-.04,1.52-.84,2.27-.92.48-.05,1.47-.31,1.47-.31.11-1.53,0-3.32-1.02-4.55-.02-.02-.04-.04-.08-.06-.35-.15-1.13-.24-1.55-.47-.28-.13-.44-.32-.28-.6.06-.11,1.61-.83,1.86-.87.7-.12,1.18-.03,1.52.2.88.5.9,1.82,1.43,2.82.41.77,1.32,1.52,1.79,2.27.14.09.27.15.4.18.63.09,1.12-.55,1.69-.82,1.67-.8,3.24-.89,4.63-.47,3.87,1.1,6.32,6.08,5.43,10.32-.06.29-.32,1.3-.46,1.46-.05.06-.12.12-.21.18-.39.31-1.22.64-1.88,1.18-.15.13-.29.27-.41.42-.2.25-.27.72-.53.92-.09.11-.21.17-.37.17.57-2.93.33-5.92-1.21-8.52-.58-.98-1.47-2.05-2.51-2.57,2.29,3.04,3.7,7.51,1.55,10.99h-.03s-.03.05-.04.07l-3.22-.04-1.04-2.16s-.03,0-.04,0c-.11.17-.05.62-.04.75.04.66.25,1.31.15,1.99-.02,0-.04-.01-.06-.02,0,.03,0,.07-.01.1-.95-.35-2.1-.53-3.03-.89-2.12-.8-3.5-4.02-3.62-6.17-.06-1.05.21-1.94.23-2.95-1.94,3-.86,6.71.68,9.64-.03.02-.05.05-.08.07,0,0,0,0,0,0-1.66,1.55-3.82-.5-4.69-1.99ZM37.21,58.18c-.6.96-.83,2.01-.7,2.91-2.12,0-3.32-1.5-3.46-3.11-.05-.38-.03-.78.08-1.19,0-.03.02-.06.03-.08.33-1.22,1.32-2.27,3.03-2.49,1.8-.23,2.94.77,3.4,2.07-.88.26-1.76.93-2.38,1.9ZM41.51,62.76c-4.25.6-4.9-5.33-.86-5.84,3.78-.48,4.16,5.37.86,5.84ZM42.88,56.42c0-.86.98-1.56,2.2-1.56s2.2.7,2.2,1.56c0,.78-.8,1.43-1.85,1.54-.28.07-.52.1-.67.05-.03,0-.07-.03-.13-.07-1-.15-1.75-.78-1.75-1.53ZM48.32,63.79c-4.54.69-4.48-5.57-.71-5.66,3.25-.08,3.71,5.2.71,5.66ZM48.89,56.89c-1.82-1.84-.67-5.11,1.77-5.46,2.59-.37,4.58,1.46,3.85,4.09-.42.97-3.5,3.51-5.62,1.37ZM55.99,62.51c-1.5.56-2.68.24-3.43-.48-.64-.61-.98-1.5-.95-2.39,0-.04,0-.09,0-.13,0,0,0-.02,0-.02.07-.85.48-1.66,1.28-2.19.01,0,.02-.02.03-.02,0,0,0,0,0,0,.39-.25.86-.43,1.43-.52,3.12-.48,4.5,3.07,2.85,4.93-.31.34-.71.63-1.24.82ZM60.15,58.12c-.34.05-.66.07-.95.06-.01,0-.03,0-.04,0,0,0,0,0,0,0-4.28-.19-3.95-6.44.16-6.53,3.81-.09,4.33,5.95.83,6.48ZM63.29,51.96c-1.46.48-1.8-.1-3.15-.46-.55-.15-1.31-.12-1.82-.29-.63-.22-.92-1.07-1.1-1.9-.14-.58-.22-1.18-.3-1.58-.05-.15-.1-.25-.17-.25-.41.58-.46,1.29-.8,1.93-.86,1.62-2.16,1.63-3.72.97-.18-.26.21-2.59.2-3.13,0-1.7-.46-3.8-1.15-5.35-.41-.93-1-1.72-1.51-2.59.39-.83,1.61-1.55,2.5-1.69,2.68-.42,3.93.91,5.99,2.2.87-.36,1.65-.68,2.45-.9.91-.26,1.84-.39,2.95-.27,6.67.68,4.86,11.57-.38,13.3Z"/>
  <path class="cls-3" d="M33.88,53.4c-1.55-2.99-2.64-6.77-.6-9.81,0,.03,0,.07,0,.1-.01,1.01-.28,1.9-.23,2.95.12,2.15,1.5,5.37,3.62,6.17.93.35,2.08.53,3.03.89,0-.03,0-.07.01-.1.06-.65-.13-1.26-.16-1.9,0-.16-.09-.76.12-.82.01,0,.02,0,.04,0l1.04,2.16,3.22.04s.03-.05.04-.07c2.1-3.51.66-8-1.64-11.04.04.02.08.04.12.06,1.04.52,1.93,1.59,2.51,2.57,1.54,2.6,1.78,5.58,1.21,8.52.16,0,.28-.07.37-.17.2-.23.27-.63.45-.86.14-.18.31-.34.49-.49.66-.54,1.49-.87,1.88-1.18.05-.04.1-.09.13-.13.14-.17.39-1.18.46-1.47.89-4.25-1.53-9.22-5.36-10.37-1.39-.42-2.96-.33-4.63.47-.57.28-1.06.91-1.69.82-.15-.02-.31-.08-.47-.19-.47-.76-1.39-1.51-1.79-2.28-.51-.97-.55-2.25-1.35-2.79-.34-.23-.81-.32-1.52-.2-.25.04-1.8.76-1.86.87-.16.28,0,.47.28.6.47.22,1.27.31,1.55.47.03.02.06.04.08.06,1.02,1.23,1.13,3.02,1.02,4.55,0,0-.99.26-1.47.31-.75.08-1.95.88-2.27.92,0,0,0,0-.01,0-.29.02-.86-.24-1.33-.25-.03,0-.05,0-.08,0-3.01,0-5.13,3.39-5.02,6.19.09,2.43,1.95,6.26,4.73,6.16-.01-.03-.02-.05-.03-.08-.36-.87-.9-1.51-1.22-2.46-.82-2.46-.58-5.19,1.25-7.13,0,.03-.02.06-.03.09-.68,2.37-.85,4.64.45,6.84.87,1.48,3.03,3.53,4.69,1.99,0,0,0,0,0,0Z"/>
  <path class="cls-2" d="M63.67,38.66c-1.11-.11-2.04.01-2.95.27-.79.23-1.57.56-2.43.91,0,0-.02-.01-.02-.02-2.06-1.29-3.31-2.63-5.99-2.2-.89.14-2.11.86-2.5,1.69.5.87,1.1,1.66,1.51,2.59.68,1.55,1.14,3.65,1.15,5.35,0,.54-.39,2.87-.2,3.13,1.56.66,2.86.65,3.72-.97.34-.64.39-1.35.8-1.93.07,0,.13.09.17.25.1.33.17.95.3,1.58.18.83.47,1.68,1.1,1.9.5.18,1.27.15,1.82.29,1.35.36,1.69.94,3.15.46,5.24-1.73,7.05-12.62.38-13.3Z"/>
  <path class="cls-3" d="M44.25,36.45l2.67.85,1.04.33c.09-.07.18-.15.27-.22,1.07-.85,2.3-1.58,3.65-1.86.18-.04.36-.07.55-.09.44-.05,1.88.1,2.06-.16.03-.3.03-.56,0-.78-.31-2.14-3.34-.47-4.95-.42,0,0,0,0,0,0,.39-.47,1.25-.74,2.12-1.02,1.05-.34,2.12-.71,2.38-1.48.03-.08.05-.17.06-.27.04-.47-.24-.8-.67-1.03-.6-.32-1.49-.41-2.17-.34-.27.03-.5.08-.67.16,0,0,0,0,0,0l1.68-1.2c1.37-1.6.65-2.85-.38-4.16-.14-.18-.29-.36-.43-.54-1.09.29-2.04.48-2.67,1.51-.07.11-.13.23-.17.35-.16.39-.24.81-.41,1.13,0,0,0,0,0,.01,0,0,0,0,0,0-.01.03-.03.05-.05.08-.3.45-1.04.7-1.38,1.28-.4.68-.37,1.35-.21,2.02.09.35.21.69.34,1.04.05.13.1.26.14.39-.02-.02-.05-.04-.07-.05,0,0-.02-.02-.03-.02-.01-.01-.03-.02-.04-.04-.01-.01-.02-.02-.03-.03,0-.01-.02-.02-.03-.03,0,0,0,0,0,0-.35-.41-.47-1.09-.77-1.4-.12-.12-.26-.19-.46-.16-.11.01-.24.06-.39.14-1.04.56-1.56,2.88-1.38,4.57.06.58.2,1.09.44,1.43Z"/>
  <path class="cls-3" d="M17.28,32.13c-1.18,1.31-2.16,2.79-2.88,4.3-2.4,5.07-2.74,11.66.5,16.45h0s-.66-5.24-.66-5.24c-.06-3.8,1.16-7.66,3.18-11.02,1.41-2.36,3.22-4.47,5.26-6.13.02-.02.04-.03.06-.05.08-.07.16-.13.25-.19,0,0,0,0,.01-.01.03-.03.07-.05.1-.08,1.28-.97,2.67-1.76,3.99-2.67,0,0,0,0,0,0-3.8-.17-7.27,1.84-9.81,4.65Z"/>
  <path class="cls-3" d="M18.82,28.89c1.12-.68,2.27-1.14,3.38-1.68.29-.14.57-.28.85-.44,0,0,.02,0,.02-.01.11-.05.18-.03.19-.14,0-.04,0-.1-.02-.18,0,0,0,0,0,0-3.45-.59-6.77.66-9.45,2.77-1.58,1.24-2.93,2.78-3.96,4.42-1.53,2.44-2.46,5.19-2.59,8.01-.07,1.48.09,2.97.5,4.44.01.01.02.03.04.04.13.11.2.02.23-.11.01-.05.02-.1.03-.15.09-.78.06-1.65.19-2.47.97-5.99,5.56-11.42,10.61-14.5Z"/>
  <path class="cls-3" d="M11.06,29.25c.43-.35.89-.69,1.38-1.02,1.58-1.07,3.41-2.01,5.27-2.57,1.06-.32,2.13-.52,3.17-.56,0,0,0,0,0,0-.92-1.15-2.16-1.57-3.47-1.57-1.31,0-2.68.42-3.87.95-1.12.5-2.17,1.15-3.13,1.93-3.71,3-6.09,7.83-5.93,12.57.18.03.25.02.28-.03.04-.06,0-.17.05-.3,1.58-3.97,2.81-6.66,6.24-9.42Z"/>
  <path class="cls-3" d="M9.45,25.13c2.01-1.42,4.32-2.42,6.7-2.81.54-.09,1.09-.14,1.63-.17,0,0,0,0,0,0,.03-.02,0-.11-.07-.24-.14-.26-.42-.68-.59-.9-.06-.08-.1-.13-.12-.14-1.01-.87-2.9-.58-4.09-.27-1,.26-1.94.67-2.83,1.2-2.59,1.55-4.65,4.12-5.82,6.95-.47,1.12-.79,2.29-.95,3.44h0c.34.08.32-.17.45-.36.47-.73.85-1.6,1.35-2.34,1.14-1.66,2.64-3.16,4.35-4.36Z"/>
  <path class="cls-3" d="M18.08,10.41s0,0,0,0c.14-.24.62-.54,1.03-.83.33-.23.6-.46.6-.65,0-.02,0-.04,0-.06-.11-.63-2.09-1.13-2.66-1.05,0,0,0,0,0,0,.02-.21.67-.26.83-.28.53-.05,1.19-.06,1.72.02.2.03.45.12.71.22.5.2,1.01.47,1.25.47.1,0,.29-.06.52-.14.44-.15,1.03-.38,1.41-.42,1.65-.16,2.97.35,4.49.87,0,0,0,0,0,0-5.15-5.21-14.19-2.08-18.46,2.81,0,0,0,0,0,0,2.69-1.25,5.68-1.92,8.57-.96Z"/>
  <path class="cls-3" d="M54.37,56.76c-.57.09-1.04.27-1.43.52,0,0,0,0,0,0-.01,0-.02.02-.03.02-.8.53-1.21,1.35-1.28,2.19,0,0,0,.02,0,.02,0,.04,0,.09,0,.13-.03.88.3,1.78.95,2.39.75.71,1.93,1.03,3.43.47.52-.19.93-.48,1.24-.82,1.65-1.86.27-5.41-2.85-4.93Z"/>
  <path class="cls-3" d="M6.4,22.97c2.8-2.29,6.21-3.85,9.9-3.77-.26-2.22-2.48-2.26-4.32-1.86-.41.09-.8.2-1.14.31-.98.32-1.91.81-2.77,1.43-.37.27-.73.56-1.07.87-1.78,1.63-3.1,3.83-3.64,6.11-.02.08-.04.16-.05.23h0s.71-.76.71-.76l2.39-2.56Z"/>
  <path class="cls-3" d="M54.51,55.52c.74-2.63-1.26-4.46-3.85-4.09-2.44.35-3.59,3.62-1.77,5.46,2.12,2.14,5.2-.41,5.62-1.37Z"/>
  <path class="cls-2" d="M40.65,56.92c-4.03.51-3.39,6.45.86,5.84,3.3-.47,2.91-6.32-.86-5.84Z"/>
  <path class="cls-2" d="M47.61,58.13c-3.77.09-3.83,6.36.71,5.66,3-.46,2.54-5.74-.71-5.66Z"/>
  <path class="cls-3" d="M59.31,51.65c-4.11.1-4.45,6.34-.16,6.53.01,0,.03,0,.04,0,.3.01.61,0,.95-.06,3.5-.52,2.97-6.57-.83-6.48Z"/>
  <path class="cls-3" d="M5.22,19.35l3.2-1.9c.44-.2.89-.37,1.33-.52,2.01-.66,4.1-.82,6.25-.54,0,0,0,0,0,0,.65-3.43-4.33-2.28-6.16-1.5-1.41.59-2.76,1.63-3.71,2.89-.37.49-.68,1.02-.91,1.57h0Z"/>
  <path class="cls-3" d="M7.44,15.06s0,0,0,0c1.52-.88,3.26-1.51,5.03-1.72.02,0,.05,0,.07,0,0,0,0,0,0,0,1.23-.14,2.47-.08,3.66.23l.93-1.83c-1.31-1.57-3.9-1.02-5.93-.03-.82.4-1.55.87-2.07,1.3-.19.16-.94.84-1.39,1.39-.24.3-.4.56-.31.67Z"/>
  <path class="cls-2" d="M37.85,34.98c.95.58,2.38.91,2.38.91,1.05.21,1.27-.67,1.5-1.22.18-.45,1.31-2.73.28-3.22-1.92-.91-4.84-.91-5.52,2.35-.1.48.46.63,1.37,1.19Z"/>
  <path class="cls-2" d="M45.43,57.97c1.05-.12,1.85-.77,1.85-1.54,0-.86-.98-1.56-2.2-1.56s-2.2.7-2.2,1.56c0,.76.75,1.39,1.75,1.53.14.02.29.03.44.03.12,0,.24,0,.35-.02Z"/>
  <ellipse class="cls-2" cx="30.25" cy="56.42" rx="1.97" ry="1.56"/>
  <path class="cls-2" d="M36.19,54.21c-1.71.22-2.7,1.27-3.03,2.49-.11.42-.15.85-.11,1.28.15,1.61,1.34,3.11,3.46,3.11-.13-.9.1-1.95.7-2.91.62-.98,1.49-1.64,2.38-1.9-.46-1.3-1.6-2.3-3.4-2.07Z"/>
</svg>