<?xml version="1.0" encoding="utf-8"?>
<!-- Generator: Adobe Illustrator 27.6.1, SVG Export Plug-In . SVG Version: 6.00 Build 0)  -->
<svg version="1.1" id="Layer_1" xmlns="http://www.w3.org/2000/svg" xmlns:xlink="http://www.w3.org/1999/xlink" x="0px" y="0px"
	 viewBox="0 0 1000 1000" style="enable-background:new 0 0 1000 1000;" xml:space="preserve">
<style type="text/css">
	.st0{fill:#fff;}
	.st1{fill-rule:evenodd;clip-rule:evenodd;fill:none;stroke:#fff;stroke-width:22.2599;stroke-miterlimit:10;}
</style>
<g>
	<g>
		<path class="st0" d="M501.7,522.5l-45.7,170.5l-46.2-170.5h-77v249.9c0,0,47.7,0,47.8,0.1V575.8l50.4,196.8h49.5L531,575.8v196.8
			h47.8v-250H501.7z"/>
		<path class="st0" d="M650.4,537.3c0,0.2-0.1,0.3-0.1,0.4c0.1-0.1,0.2-0.2,0.4-0.3C650.5,537.5,650.5,537.4,650.4,537.3z"/>
		<path class="st0" d="M466.3,429v-68.1h132v-42h-132v-55.5h142v-42.3h-195V471c0,0,200,0,200,0.1V429H466.3z"/>
		<path class="st0" d="M339.3,439.8c9.3-12.2,13.8-26.6,13.8-43.6c0-16.5-4.6-30.8-13.7-43.1c-9.3-12.3-20.2-20.8-33.2-25.3
			c-13-4.6-29.3-6.8-48.9-6.8h-71v-58H330v-41.9H133.4c0,0,0,249.9,0,250h124.1c21.8,0,38.5-2.1,50.3-6.6
			C319.6,460.1,330.1,451.8,339.3,439.8z M186.5,429.1V363h54c20.9,0,35.8,2.6,44.4,7.9c8.7,5.3,13.1,13.7,13.1,25.3
			c0,8-2.4,14.7-7.4,20.2c-5,5.5-10.8,8.9-17.6,10.4c-6.7,1.6-18.3,2.3-34.8,2.3H186.5z"/>
		<path class="st0" d="M306.7,564.6v-42H134c0,0,0,249.9,0,250h51.5v-208H306.7z"/>
		<path class="st0" d="M749.7,674.8c20.1-43.2,47.5-67.7,79.9-79.2c25,71.1-14.9,162.6-85.9,183.6
			c-88.7-58.8-120.4-129.5-93.4-241.5c-32.7,24.9-53.8,63.6-53.8,107.2c0,75.1,62.4,136,139.4,136s139.4-60.8,139.4-136
			c0-75.2-62.5-136-139.4-136c-32.2,0-61.7,10.7-85.2,28.6C700,566,732.1,612.7,749.7,674.8z"/>
		<path class="st0" d="M672,277.9l51.7,11.5c6.1-21,20.5-31.4,42.7-31.4c13,0,23,3.1,30,9.4c7,6.2,10.4,13.9,10.4,23
			c0,11.5-4.3,20.7-12.9,27.6c-8.7,6.9-21.1,10.4-37.3,10.4h-6.1v37.5h12.2c17.4,0,30.5,3.2,39.2,9.4c8.7,6.3,13,14.5,13,24.8
			c0,9-3.8,16.8-11.4,23.7c-7.8,6.8-20,10.2-36.8,10.2c-12.2,0-22.4-2.2-30.7-6.6c-8.4-4.4-15-14-20.1-29.2l-48.7,15.2
			c8.1,23.9,20,40.2,35.9,48.9c16,8.8,37.6,13.1,65.1,13.1c33.8,0,59.2-6.7,76.1-20.3c17-13.6,25.5-31.2,25.5-53.1
			c0-15.2-4.4-28.1-13.1-38.5c-8.8-10.4-21.8-18.4-39.4-24.1c14.4-7.3,25.2-15.7,32.3-25.4c7.3-9.7,10.8-20.4,10.8-32.3
			c0-17.5-7.8-32.6-23.6-45.5c-15.8-12.8-39.1-19.3-69.9-19.3C714.7,216.8,683,237.1,672,277.9z"/>
	</g>
	<path id="_328594968_00000103965586310255701400000000675166065924808064_" class="st1" d="M182.8,114.1h634.4
		c93.7,0,170.4,76.6,170.4,170.4v431c0,93.7-76.6,170.4-170.4,170.4H182.8c-93.7,0-170.4-76.7-170.4-170.4v-431
		C12.4,190.9,89.1,114.1,182.8,114.1z"/>
</g>
</svg>
