<svg viewBox="0 0 18.0452 16" xmlns="http://www.w3.org/2000/svg" xmlns:xlink="http://www.w3.org/1999/xlink" width="18.045166" height="16.000000" fill="none" customFrame="#000000">
    <path id="矢量 291" d="M5.41353 12.8C4.42105 12.8 3.61805 13.52 3.61805 14.4C3.61805 15.28 4.42105 16 5.41353 16C6.40602 16 7.21805 15.28 7.21805 14.4C7.21805 13.52 6.40602 12.8 5.41353 12.8ZM0 0L0 1.6L1.80451 1.6L5.05263 7.672L3.83459 9.632C3.69023 9.856 3.60902 10.12 3.60902 10.4C3.60902 11.28 4.42105 12 5.41353 12L16.2406 12L16.2406 10.4L5.79248 10.4C5.66617 10.4 5.56692 10.312 5.56692 10.2L5.59399 10.104L6.40602 8.8L13.1278 8.8C13.8045 8.8 14.4 8.472 14.7068 7.976L17.9368 2.784C18.009 2.672 18.0451 2.536 18.0451 2.4C18.0451 1.96 17.6391 1.6 17.1429 1.6L3.7985 1.6L2.95038 0L0 0ZM14.4361 12.8C13.4436 12.8 12.6406 13.52 12.6406 14.4C12.6406 15.28 13.4436 16 14.4361 16C15.4286 16 16.2406 15.28 16.2406 14.4C16.2406 13.52 15.4286 12.8 14.4361 12.8Z" fill="rgb(255,249,240)" fill-rule="evenodd" />
</svg>