<svg viewBox="0 0 19.5146 12.0012" xmlns="http://www.w3.org/2000/svg" xmlns:xlink="http://www.w3.org/1999/xlink" width="19.514648" height="12.001217" fill="none" customFrame="#000000">
    <path id="Вектор 9" d="M19.2547 1.70789L10.3847 11.7079C10.2746 11.8322 10.1374 11.9216 9.98686 11.9671C9.83636 12.0126 9.67789 12.0126 9.52739 11.9671C9.3769 11.9216 9.23969 11.8322 9.12957 11.7079L0.259546 1.70789C0.127072 1.55847 0.0399504 1.36561 0.0106632 1.15694C-0.0186244 0.948271 0.0114254 0.734506 0.0965076 0.546273C0.181589 0.35804 0.317337 0.204999 0.484299 0.109078C0.651262 0.0131564 0.840871 -0.0207221 1.02596 0.0122971C1.21105 0.0453154 1.38212 0.143536 1.51465 0.292885L9.75689 5.50003L17.9996 0.292886C18.1321 0.143579 18.3032 0.0453983 18.4883 0.0124058C18.6733 -0.0205867 18.8629 0.0133032 19.0299 0.109219C19.1968 0.205137 19.3325 0.358159 19.4176 0.546366C19.5027 0.734575 19.5328 0.948311 19.5035 1.15696C19.4742 1.36561 19.3871 1.55846 19.2547 1.70789Z" fill="rgb(255,249,240)" fill-rule="nonzero" />
</svg>