<svg viewBox="0 0 33.5403 30" xmlns="http://www.w3.org/2000/svg" xmlns:xlink="http://www.w3.org/1999/xlink" width="33.540283" height="30.000000" fill="none" customFrame="#000000">
    <g id="иконка выход">
        <path id="Вектор 2" d="M30.7453 30L13.9751 30C13.4845 30 13.0025 29.901 12.5776 29.7129C12.1527 29.5248 11.7998 29.2543 11.5545 28.9286C11.3092 28.6028 11.1801 28.2333 11.1801 27.8571L11.1801 24.6429L13.9751 24.6429L13.9751 27.8571L30.7453 27.8571L30.7453 2.14286L13.9751 2.14286L13.9751 5.35714L11.1801 5.35714L11.1801 2.14286C11.1801 1.76671 11.3092 1.39718 11.5545 1.07143C11.7998 0.745673 12.1527 0.475163 12.5776 0.287088C13.0025 0.0990133 13.4845 0 13.9751 0L30.7453 0C31.2359 0 31.7179 0.0990133 32.1428 0.287088C32.5677 0.475163 32.9205 0.745673 33.1658 1.07143C33.4112 1.39718 33.5403 1.76671 33.5403 2.14286L33.5403 27.8571C33.5403 28.2333 33.4112 28.6028 33.1658 28.9286C32.9205 29.2543 32.5677 29.5248 32.1428 29.7129C31.7179 29.901 31.2359 30 30.7453 30Z" fill="rgb(255,249,240)" fill-rule="nonzero" />
        <path id="Вектор 3" d="M14.7997 19.9178L19.8028 16.0714L0 16.0714L0 13.9286L19.8028 13.9286L14.7997 10.0821L16.7702 8.57141L25.1553 15L16.7702 21.4286L14.7997 19.9178Z" fill="rgb(255,249,240)" fill-rule="nonzero" />
    </g>
</svg>