<svg viewBox="0 0 11.9928 22.0007" xmlns="http://www.w3.org/2000/svg" xmlns:xlink="http://www.w3.org/1999/xlink" width="11.992798" height="22.000732" fill="none" customFrame="#000000">
    <path id="Вектор 5" d="M11.6999 20.2927C11.8493 20.4422 11.9475 20.635 11.9805 20.8437C12.0135 21.0524 11.9797 21.2662 11.8838 21.4545C11.788 21.6428 11.635 21.7958 11.4469 21.8917C11.2587 21.9877 11.0451 22.0215 10.8365 21.9885C10.628 21.9554 10.4353 21.8572 10.286 21.7077L0.293077 11.7077C0.168885 11.5836 0.0795618 11.4289 0.0340982 11.2592C-0.0113664 11.0896 -0.0113664 10.9109 0.0340982 10.7413C0.0795618 10.5716 0.168885 10.4169 0.293077 10.2928L10.286 0.292758C10.4353 0.143453 10.628 0.0452723 10.8365 0.01228C11.045 -0.0207124 11.2586 0.0131769 11.4466 0.109093C11.6347 0.205009 11.7876 0.358031 11.8835 0.546238C11.9793 0.734445 12.0132 0.94818 11.9802 1.15683C11.9473 1.36547 11.8491 1.55833 11.6999 1.70776L2.41282 11.0002L11.6999 20.2927Z" fill="rgb(0,0,0)" fill-rule="nonzero" />
</svg>