<?xml version="1.0" encoding="UTF-8" standalone="no"?>
<!-- Generator: Adobe Illustrator 13.0.0, SVG Export Plug-In . SVG Version: 6.00 Build 14948)  -->

<svg
   xmlns:dc="http://purl.org/dc/elements/1.1/"
   xmlns:cc="http://creativecommons.org/ns#"
   xmlns:rdf="http://www.w3.org/1999/02/22-rdf-syntax-ns#"
   xmlns:svg="http://www.w3.org/2000/svg"
   xmlns="http://www.w3.org/2000/svg"
   xmlns:sodipodi="http://sodipodi.sourceforge.net/DTD/sodipodi-0.dtd"
   xmlns:inkscape="http://www.inkscape.org/namespaces/inkscape"
   version="1.1"
   id="Layer_2"
   x="0px"
   y="0px"
   width="222.86749"
   height="218.23427"
   viewBox="0 0 222.86749 218.23427"
   enable-background="new 0 0 300 298"
   xml:space="preserve"
   sodipodi:docname="Russian quality sign.svg"
   inkscape:version="0.92.4 (5da689c313, 2019-01-14)"><metadata
   id="metadata15"><rdf:RDF><cc:Work
       rdf:about=""><dc:format>image/svg+xml</dc:format><dc:type
         rdf:resource="http://purl.org/dc/dcmitype/StillImage" /><dc:title></dc:title></cc:Work></rdf:RDF></metadata><defs
   id="defs13" /><sodipodi:namedview
   pagecolor="#ffffff"
   bordercolor="#666666"
   borderopacity="1"
   objecttolerance="10"
   gridtolerance="10"
   guidetolerance="10"
   inkscape:pageopacity="0"
   inkscape:pageshadow="2"
   inkscape:window-width="1400"
   inkscape:window-height="1003"
   id="namedview11"
   showgrid="false"
   showguides="false"
   fit-margin-top="0"
   fit-margin-left="0"
   fit-margin-right="0"
   fit-margin-bottom="0"
   inkscape:zoom="0.79194631"
   inkscape:cx="89.794032"
   inkscape:cy="106.768"
   inkscape:window-x="-4"
   inkscape:window-y="-4"
   inkscape:window-maximized="1"
   inkscape:current-layer="Layer_2" />
<rect
   width="0"
   height="89.652481"
   id="rect2"
   style="fill:#ffffff"
   x="261.89151"
   y="170.81374" />
<path
   d="m 0.00248937,83.998272 c -0.042,-1.944 0.448,-3.836 1.42900003,-5.514 v 0 c 1.236,-2.015 9.1089996,-14.469 47.2499996,-42.486 v 0 c 38.225,-28.031 58.120001,-35.03699998 59.276001,-35.43299998 v 0 c 1.84,-0.627 3.753,-0.734 5.651,-0.313 v 0 c 2.251,0.546 16.711,4.26099998 55.145,31.88299998 v 0 c 38.436,27.668 51.19,44 51.92,44.952 v 0 c 1.182,1.542 1.93,3.449 2.115,5.383 v 0 c 0.035,0.365 0.079,1.023 0.079,2.049 v 0 c -0.022,5.564 -1.244,21.819998 -13.394,59.844998 v 0 c -14.438,45.116 -26.186,62.522 -26.854,63.496 v 0 c -1.103,1.601 -2.569,2.823 -4.343,3.62 v 0 c -2.216,0.938 -15.915,6.501 -63.266,6.749 v 0 c -0.823,0.003 -1.644,0.005 -2.459,0.005 v 0 c -45.614001,0 -65.157001,-5.652 -66.274001,-5.987 v 0 c -1.811,-0.542 -3.503,-1.608 -4.77,-3.009 v 0 c -1.567,-1.808 -11.13,-13.175 -25.995,-58.125 v 0 C 0.67548937,106.12127 0.02748937,85.200272 0.00248937,83.998272 v 0 M 65.553489,194.55727 c 9.715,1.317 25.059,2.678 47.000001,2.678 v 0 c 0.781,0 1.575,-0.002 2.376,-0.004 v 0 c 31.252,-0.123 46.405,-2.8 52.144,-4.193 v 0 c 1.142,-2.01 2.799,-5.101 4.859,-9.415 v 0 c 4.383,-9.186 10.588,-23.927 17.544,-45.658 v 0 c 9.494,-29.625 11.749,-44.792998 12.254,-50.712998 v 0 c -1.546,-1.688 -3.928,-4.164 -7.319,-7.377 v 0 c -7.339,-6.954 -19.402,-17.361 -37.925,-30.696 v 0 c -25.46,-18.339 -39.364,-25.169 -44.855,-27.448 v 0 c -2.109,0.937 -5.273,2.439 -9.488,4.696 v 0 c -8.957001,4.801 -22.656001,13.024 -41.042001,26.507 v 0 c -25.205,18.464 -35.948,29.507 -39.813,34.01 v 0 c 0.251,2.289 0.715,5.737 1.572,10.4 v 0 c 1.832,9.978998 5.454,25.527998 12.6,47.193998 v 0 c 9.787,29.723 17.035,43.33 20.138,48.36 v 0 c 2.182,0.452 5.468,1.05 9.955,1.659 z"
   id="path4"
   style="fill:#fff"
   inkscape:connector-curvature="0" />
<rect
   x="69.891487"
   y="66.46627"
   width="21"
   height="100"
   id="rect6"
   style="fill:#fff" />
<polygon
   points="202.5,202.5 161.5,154 202.5,105.5 177.5,105.5 137,154 177.5,202.5 "
   id="polygon8"
   style="fill:#fff"
   transform="translate(-38.108511,-37.533728)" />
</svg>