<svg xmlns="http://www.w3.org/2000/svg" xmlns:xlink="http://www.w3.org/1999/xlink" width="240" height="240" viewBox="0 0 48 48">
  <defs>
    <path id="w6hya" d="M102.94 20h22.12c4.5 0 6.13.47 7.77 1.35a9.17 9.17 0 0 1 3.82 3.82c.88 1.64 1.35 3.27 1.35 7.77v22.12c0 4.5-.47 6.13-1.35 7.77a9.17 9.17 0 0 1-3.82 3.82c-1.64.88-3.27 1.35-7.77 1.35h-22.12c-4.5 0-6.13-.47-7.77-1.35a9.17 9.17 0 0 1-3.82-3.82C90.47 61.2 90 59.56 90 55.06V32.94c0-4.5.47-6.13 1.35-7.77a9.17 9.17 0 0 1 3.82-3.82c1.64-.88 3.27-1.35 7.77-1.35z"/>
    <path id="w6hyM" d="M125.99 29.74a2.29 2.29 0 0 1 2.28 2.29v5.68h4.76v-5.68c0-3.9-3.16-7.06-7.04-7.06h-5.7v4.77z"/>
    <path id="w6hyN" d="M128.27 56a2.28 2.28 0 0 1-2.28 2.28h-5.7v4.75h5.7a7.05 7.05 0 0 0 7.04-7.03V50.3h-4.76z"/>
    <path id="w6hyO" d="M99.73 32.03a2.29 2.29 0 0 1 2.28-2.3h5.7v-4.76h-5.7a7.06 7.06 0 0 0-7.04 7.06v5.68h4.76z"/>
    <path id="w6hyP" d="M102.01 58.28A2.29 2.29 0 0 1 99.73 56V50.3h-4.76V56a7.05 7.05 0 0 0 7.04 7.03h5.7v-4.75z"/>
    <path id="w6hyQ" d="M111.26 55.42l-10.17-10.17 3.36-3.37 6.8 6.8 12.3-12.3 3.36 3.37z"/>
  </defs>
  <g transform="translate(-90 -20)">
    <use fill="#fff" xlink:href="#w6hya"/>
    <use fill="#63666a" xlink:href="#w6hyM"/>
    <use fill="#63666a" xlink:href="#w6hyN"/>
    <use fill="#63666a" xlink:href="#w6hyO"/>
    <use fill="#63666a" xlink:href="#w6hyP"/>
    <use fill="#63666a" xlink:href="#w6hyQ"/>
  </g>
</svg>
